<svg viewBox="0 0 1239 1319" fill="none" xmlns="http://www.w3.org/2000/svg">
    <path d="M879 0H840V39H879V0Z" fill="#212121" fill-opacity="0.5"/>
    <path d="M919 80H880V119H919V80Z" fill="#212121" fill-opacity="0.5"/>
    <path d="M919 160H880V199H919V160Z" fill="#212121" fill-opacity="0.5"/>
    <path d="M879 120H840V159H879V120Z" fill="#212121" fill-opacity="0.5"/>
    <path d="M879 80H840V119H879V80Z" fill="#212121" fill-opacity="0.5"/>
    <path d="M799 120H760V159H799V120Z" fill="#212121" fill-opacity="0.5"/>
    <path d="M839 120H800V159H839V120Z" fill="#212121" fill-opacity="0.5"/>
    <path d="M879 160H840V199H879V160Z" fill="#212121" fill-opacity="0.5"/>
    <path d="M799 320H760V359H799V320Z" fill="#212121" fill-opacity="0.5"/>
    <path d="M919 120H880V159H919V120Z" fill="#212121" fill-opacity="0.5"/>
    <path d="M959 160H920V199H959V160Z" fill="#212121" fill-opacity="0.5"/>
    <path d="M999 120H960V159H999V120Z" fill="#212121" fill-opacity="0.5"/>
    <path d="M959 120H920V159H959V120Z" fill="#212121" fill-opacity="0.5"/>
    <path d="M999 200H960V239H999V200Z" fill="#212121" fill-opacity="0.5"/>
    <path d="M1039 200H1000V239H1039V200Z" fill="#212121" fill-opacity="0.5"/>
    <path d="M1039 280H1000V319H1039V280Z" fill="#212121" fill-opacity="0.5"/>
    <path d="M1039 240H1000V279H1039V240Z" fill="#212121" fill-opacity="0.5"/>
    <path d="M999 160H960V199H999V160Z" fill="#212121" fill-opacity="0.5"/>
    <path d="M879 200H840V239H879V200Z" fill="#212121" fill-opacity="0.5"/>
    <path d="M759 240H720V279H759V240Z" fill="#212121" fill-opacity="0.5"/>
    <path d="M879 240H840V279H879V240Z" fill="#212121" fill-opacity="0.5"/>
    <path d="M839 160H800V199H839V160Z" fill="#212121" fill-opacity="0.5"/>
    <path d="M839 200H800V239H839V200Z" fill="#212121" fill-opacity="0.5"/>
    <path d="M919 240H880V279H919V240Z" fill="#212121" fill-opacity="0.5"/>
    <path d="M839 320H800V359H839V320Z" fill="#212121" fill-opacity="0.5"/>
    <path d="M799 240H760V279H799V240Z" fill="#212121" fill-opacity="0.5"/>
    <path d="M799 200H760V239H799V200Z" fill="#212121" fill-opacity="0.5"/>
    <path d="M839 240H800V279H839V240Z" fill="#212121" fill-opacity="0.5"/>
    <path d="M879 280H840V319H879V280Z" fill="#212121" fill-opacity="0.5"/>
    <path d="M799 280H760V319H799V280Z" fill="#212121" fill-opacity="0.5"/>
    <path d="M839 280H800V319H839V280Z" fill="#212121" fill-opacity="0.5"/>
    <path d="M759 200H720V239H759V200Z" fill="#212121" fill-opacity="0.5"/>
    <path d="M919 200H880V239H919V200Z" fill="#212121" fill-opacity="0.5"/>
    <path d="M959 200H920V239H959V200Z" fill="#212121" fill-opacity="0.5"/>
    <path d="M759 280H720V319H759V280Z" fill="#212121" fill-opacity="0.5"/>
    <path d="M759 320H720V359H759V320Z" fill="#212121" fill-opacity="0.5"/>
    <path d="M719 280H680V319H719V280Z" fill="#212121" fill-opacity="0.5"/>
    <path d="M799 360H760V399H799V360Z" fill="#212121" fill-opacity="0.5"/>
    <path d="M759 360H720V399H759V360Z" fill="#212121" fill-opacity="0.5"/>
    <path d="M719 360H680V399H719V360Z" fill="#212121" fill-opacity="0.5"/>
    <path d="M759 400H720V439H759V400Z" fill="#212121" fill-opacity="0.5"/>
    <path d="M679 440H640V479H679V440Z" fill="#212121" fill-opacity="0.5"/>
    <path d="M719 440H680V479H719V440Z" fill="#212121" fill-opacity="0.5"/>
    <path d="M759 480H720V519H759V480Z" fill="#212121" fill-opacity="0.5"/>
    <path d="M759 520H720V559H759V520Z" fill="#212121" fill-opacity="0.5"/>
    <path d="M999 280H960V319H999V280Z" fill="#212121" fill-opacity="0.5"/>
    <path d="M919 280H880V319H919V280Z" fill="#212121" fill-opacity="0.5"/>
    <path d="M959 360H920V399H959V360Z" fill="#212121" fill-opacity="0.5"/>
    <path d="M879 320H840V359H879V320Z" fill="#212121" fill-opacity="0.5"/>
    <path d="M919 360H880V399H919V360Z" fill="#212121" fill-opacity="0.5"/>
    <path d="M959 280H920V319H959V280Z" fill="#212121" fill-opacity="0.5"/>
    <path d="M1079 400H1040V439H1079V400Z" fill="#212121" fill-opacity="0.5"/>
    <path d="M959 320H920V359H959V320Z" fill="#212121" fill-opacity="0.5"/>
    <path d="M999 320H960V359H999V320Z" fill="#212121" fill-opacity="0.5"/>
    <path d="M959 240H920V279H959V240Z" fill="#212121" fill-opacity="0.5"/>
    <path d="M999 240H960V279H999V240Z" fill="#212121" fill-opacity="0.5"/>
    <path d="M919 320H880V359H919V320Z" fill="#212121" fill-opacity="0.5"/>
    <path d="M959 400H920V439H959V400Z" fill="#212121" fill-opacity="0.5"/>
    <path d="M879 360H840V399H879V360Z" fill="#212121" fill-opacity="0.5"/>
    <path d="M1039 320H1000V359H1039V320Z" fill="#212121" fill-opacity="0.5"/>
    <path d="M919 400H880V439H919V400Z" fill="#212121" fill-opacity="0.5"/>
    <path d="M1119 360H1080V399H1119V360Z" fill="#212121" fill-opacity="0.5"/>
    <path d="M1159 320H1120V359H1159V320Z" fill="#212121" fill-opacity="0.5"/>
    <path d="M1079 320H1040V359H1079V320Z" fill="#212121" fill-opacity="0.5"/>
    <path d="M1039 360H1000V399H1039V360Z" fill="#212121" fill-opacity="0.5"/>
    <path d="M1159 400H1120V439H1159V400Z" fill="#212121" fill-opacity="0.5"/>
    <path d="M959 520H920V559H959V520Z" fill="#212121" fill-opacity="0.5"/>
    <path d="M999 400H960V439H999V400Z" fill="#212121" fill-opacity="0.5"/>
    <path d="M999 360H960V399H999V360Z" fill="#212121" fill-opacity="0.5"/>
    <path d="M1079 360H1040V399H1079V360Z" fill="#212121" fill-opacity="0.5"/>
    <path d="M1159 360H1120V399H1159V360Z" fill="#212121" fill-opacity="0.5"/>
    <path d="M1039 400H1000V439H1039V400Z" fill="#212121" fill-opacity="0.5"/>
    <path d="M1239 520H1200V559H1239V520Z" fill="#212121" fill-opacity="0.5"/>
    <path d="M1079 440H1040V479H1079V440Z" fill="#212121" fill-opacity="0.5"/>
    <path d="M1199 400H1160V439H1199V400Z" fill="#212121" fill-opacity="0.5"/>
    <path d="M1119 320H1080V359H1119V320Z" fill="#212121" fill-opacity="0.5"/>
    <path d="M1039 520H1000V559H1039V520Z" fill="#212121" fill-opacity="0.5"/>
    <path d="M1119 400H1080V439H1119V400Z" fill="#212121" fill-opacity="0.5"/>
    <path d="M1159 440H1120V479H1159V440Z" fill="#212121" fill-opacity="0.5"/>
    <path d="M999 440H960V479H999V440Z" fill="#212121" fill-opacity="0.5"/>
    <path d="M1119 480H1080V519H1119V480Z" fill="#212121" fill-opacity="0.5"/>
    <path d="M1039 440H1000V479H1039V440Z" fill="#212121" fill-opacity="0.5"/>
    <path d="M919 480H880V519H919V480Z" fill="#212121" fill-opacity="0.5"/>
    <path d="M919 440H880V479H919V440Z" fill="#212121" fill-opacity="0.5"/>
    <path d="M959 440H920V479H959V440Z" fill="#212121" fill-opacity="0.5"/>
    <path d="M879 440H840V479H879V440Z" fill="#212121" fill-opacity="0.5"/>
    <path d="M879 400H840V439H879V400Z" fill="#212121" fill-opacity="0.5"/>
    <path d="M879 480H840V519H879V480Z" fill="#212121" fill-opacity="0.5"/>
    <path d="M839 400H800V439H839V400Z" fill="#212121" fill-opacity="0.5"/>
    <path d="M839 440H800V479H839V440Z" fill="#212121" fill-opacity="0.5"/>
    <path d="M799 480H760V519H799V480Z" fill="#212121" fill-opacity="0.5"/>
    <path d="M839 480H800V519H839V480Z" fill="#212121" fill-opacity="0.5"/>
    <path d="M799 440H760V479H799V440Z" fill="#212121" fill-opacity="0.5"/>
    <path d="M879 520H840V559H879V520Z" fill="#212121" fill-opacity="0.5"/>
    <path d="M999 480H960V519H999V480Z" fill="#212121" fill-opacity="0.5"/>
    <path d="M999 520H960V559H999V520Z" fill="#212121" fill-opacity="0.5"/>
    <path d="M999 600H960V639H999V600Z" fill="#212121" fill-opacity="0.5"/>
    <path d="M919 560H880V599H919V560Z" fill="#212121" fill-opacity="0.5"/>
    <path d="M959 480H920V519H959V480Z" fill="#212121" fill-opacity="0.5"/>
    <path d="M1039 480H1000V519H1039V480Z" fill="#212121" fill-opacity="0.5"/>
    <path d="M879 560H840V599H879V560Z" fill="#212121" fill-opacity="0.5"/>
    <path d="M959 600H920V639H959V600Z" fill="#212121" fill-opacity="0.5"/>
    <path d="M999 560H960V599H999V560Z" fill="#212121" fill-opacity="0.5"/>
    <path d="M1039 600H1000V639H1039V600Z" fill="#212121" fill-opacity="0.5"/>
    <path d="M919 520H880V559H919V520Z" fill="#212121" fill-opacity="0.5"/>
    <path d="M919 600H880V639H919V600Z" fill="#212121" fill-opacity="0.5"/>
    <path d="M839 560H800V599H839V560Z" fill="#212121" fill-opacity="0.5"/>
    <path d="M839 520H800V559H839V520Z" fill="#212121" fill-opacity="0.5"/>
    <path d="M959 640H920V679H959V640Z" fill="#212121" fill-opacity="0.5"/>
    <path d="M839 600H800V639H839V600Z" fill="#212121" fill-opacity="0.5"/>
    <path d="M1079 560H1040V599H1079V560Z" fill="#212121" fill-opacity="0.5"/>
    <path d="M1039 560H1000V599H1039V560Z" fill="#212121" fill-opacity="0.5"/>
    <path d="M1199 440H1160V479H1199V440Z" fill="#212121" fill-opacity="0.5"/>
    <path d="M1119 560H1080V599H1119V560Z" fill="#212121" fill-opacity="0.5"/>
    <path d="M959 560H920V599H959V560Z" fill="#212121" fill-opacity="0.5"/>
    <path d="M1159 480H1120V519H1159V480Z" fill="#212121" fill-opacity="0.5"/>
    <path d="M1159 640H1120V679H1159V640Z" fill="#212121" fill-opacity="0.5"/>
    <path d="M1239 480H1200V519H1239V480Z" fill="#212121" fill-opacity="0.5"/>
    <path d="M1239 560H1200V599H1239V560Z" fill="#212121" fill-opacity="0.5"/>
    <path d="M1079 480H1040V519H1079V480Z" fill="#212121" fill-opacity="0.5"/>
    <path d="M1159 520H1120V559H1159V520Z" fill="#212121" fill-opacity="0.5"/>
    <path d="M1079 520H1040V559H1079V520Z" fill="#212121" fill-opacity="0.5"/>
    <path d="M1159 600H1120V639H1159V600Z" fill="#212121" fill-opacity="0.5"/>
    <path d="M1199 480H1160V519H1199V480Z" fill="#212121" fill-opacity="0.5"/>
    <path d="M1119 680H1080V719H1119V680Z" fill="#212121" fill-opacity="0.5"/>
    <path d="M1119 440H1080V479H1119V440Z" fill="#212121" fill-opacity="0.5"/>
    <path d="M1199 600H1160V639H1199V600Z" fill="#212121" fill-opacity="0.5"/>
    <path d="M1079 600H1040V639H1079V600Z" fill="#212121" fill-opacity="0.5"/>
    <path d="M1199 520H1160V559H1199V520Z" fill="#212121" fill-opacity="0.5"/>
    <path d="M1159 560H1120V599H1159V560Z" fill="#212121" fill-opacity="0.5"/>
    <path d="M1119 520H1080V559H1119V520Z" fill="#212121" fill-opacity="0.5"/>
    <path d="M1199 560H1160V599H1199V560Z" fill="#212121" fill-opacity="0.5"/>
    <path d="M1039 640H1000V679H1039V640Z" fill="#212121" fill-opacity="0.5"/>
    <path d="M1119 600H1080V639H1119V600Z" fill="#212121" fill-opacity="0.5"/>
    <path d="M1079 680H1040V719H1079V680Z" fill="#212121" fill-opacity="0.5"/>
    <path d="M999 640H960V679H999V640Z" fill="#212121" fill-opacity="0.5"/>
    <path d="M1119 640H1080V679H1119V640Z" fill="#212121" fill-opacity="0.5"/>
    <path d="M1039 680H1000V719H1039V680Z" fill="#212121" fill-opacity="0.5"/>
    <path d="M1039 720H1000V759H1039V720Z" fill="#212121" fill-opacity="0.5"/>
    <path d="M999 680H960V719H999V680Z" fill="#212121" fill-opacity="0.5"/>
    <path d="M919 640H880V679H919V640Z" fill="#212121" fill-opacity="0.5"/>
    <path d="M1079 640H1040V679H1079V640Z" fill="#212121" fill-opacity="0.5"/>
    <path d="M919 680H880V719H919V680Z" fill="#212121" fill-opacity="0.5"/>
    <path d="M799 600H760V639H799V600Z" fill="#212121" fill-opacity="0.5"/>
    <path d="M919 720H880V759H919V720Z" fill="#212121" fill-opacity="0.5"/>
    <path d="M799 680H760V719H799V680Z" fill="#212121" fill-opacity="0.5"/>
    <path d="M959 680H920V719H959V680Z" fill="#212121" fill-opacity="0.5"/>
    <path d="M879 760H840V799H879V760Z" fill="#212121" fill-opacity="0.5"/>
    <path d="M759 600H720V639H759V600Z" fill="#212121" fill-opacity="0.5"/>
    <path d="M879 640H840V679H879V640Z" fill="#212121" fill-opacity="0.5"/>
    <path d="M799 760H760V799H799V760Z" fill="#212121" fill-opacity="0.5"/>
    <path d="M759 720H720V759H759V720Z" fill="#212121" fill-opacity="0.5"/>
    <path d="M839 800H800V839H839V800Z" fill="#212121" fill-opacity="0.5"/>
    <path d="M839 680H800V719H839V680Z" fill="#212121" fill-opacity="0.5"/>
    <path d="M839 760H800V799H839V760Z" fill="#212121" fill-opacity="0.5"/>
    <path d="M999 720H960V759H999V720Z" fill="#212121" fill-opacity="0.5"/>
    <path d="M879 600H840V639H879V600Z" fill="#212121" fill-opacity="0.5"/>
    <path d="M959 720H920V759H959V720Z" fill="#212121" fill-opacity="0.5"/>
    <path d="M839 720H800V759H839V720Z" fill="#212121" fill-opacity="0.5"/>
    <path d="M1079 720H1040V759H1079V720Z" fill="#212121" fill-opacity="0.5"/>
    <path d="M999 760H960V799H999V760Z" fill="#212121" fill-opacity="0.5"/>
    <path d="M879 680H840V719H879V680Z" fill="#212121" fill-opacity="0.5"/>
    <path d="M959 760H920V799H959V760Z" fill="#212121" fill-opacity="0.5"/>
    <path d="M919 760H880V799H919V760Z" fill="#212121" fill-opacity="0.5"/>
    <path d="M839 840H800V879H839V840Z" fill="#212121" fill-opacity="0.5"/>
    <path d="M799 800H760V839H799V800Z" fill="#212121" fill-opacity="0.5"/>
    <path d="M759 800H720V839H759V800Z" fill="#212121" fill-opacity="0.5"/>
    <path d="M879 720H840V759H879V720Z" fill="#212121" fill-opacity="0.5"/>
    <path d="M719 800H680V839H719V800Z" fill="#212121" fill-opacity="0.5"/>
    <path d="M759 880H720V919H759V880Z" fill="#212121" fill-opacity="0.5"/>
    <path d="M759 840H720V879H759V840Z" fill="#212121" fill-opacity="0.5"/>
    <path d="M719 880H680V919H719V880Z" fill="#212121" fill-opacity="0.5"/>
    <path d="M719 840H680V879H719V840Z" fill="#212121" fill-opacity="0.5"/>
    <path d="M719 920H680V959H719V920Z" fill="#212121" fill-opacity="0.5"/>
    <path d="M799 720H760V759H799V720Z" fill="#212121" fill-opacity="0.5"/>
    <path d="M759 680H720V719H759V680Z" fill="#212121" fill-opacity="0.5"/>
    <path d="M759 760H720V799H759V760Z" fill="#212121" fill-opacity="0.5"/>
    <path d="M719 720H680V759H719V720Z" fill="#212121" fill-opacity="0.5"/>
    <path d="M839 640H800V679H839V640Z" fill="#212121" fill-opacity="0.5"/>
    <path d="M799 640H760V679H799V640Z" fill="#212121" fill-opacity="0.5"/>
    <path d="M799 560H760V599H799V560Z" fill="#212121" fill-opacity="0.5"/>
    <path d="M759 640H720V679H759V640Z" fill="#212121" fill-opacity="0.5"/>
    <path d="M759 560H720V599H759V560Z" fill="#212121" fill-opacity="0.5"/>
    <path d="M719 640H680V679H719V640Z" fill="#212121" fill-opacity="0.5"/>
    <path d="M719 680H680V719H719V680Z" fill="#212121" fill-opacity="0.5"/>
    <path d="M719 600H680V639H719V600Z" fill="#212121" fill-opacity="0.5"/>
    <path d="M719 760H680V799H719V760Z" fill="#212121" fill-opacity="0.5"/>
    <path d="M679 800H640V839H679V800Z" fill="#212121" fill-opacity="0.5"/>
    <path d="M639 800H600V839H639V800Z" fill="#212121" fill-opacity="0.5"/>
    <path d="M559 880H520V919H559V880Z" fill="#212121" fill-opacity="0.5"/>
    <path d="M639 840H600V879H639V840Z" fill="#212121" fill-opacity="0.5"/>
    <path d="M599 880H560V919H599V880Z" fill="#212121" fill-opacity="0.5"/>
    <path d="M559 920H520V959H559V920Z" fill="#212121" fill-opacity="0.5"/>
    <path d="M519 960H480V999H519V960Z" fill="#212121" fill-opacity="0.5"/>
    <path d="M559 960H520V999H559V960Z" fill="#212121" fill-opacity="0.5"/>
    <path d="M479 920H440V959H479V920Z" fill="#212121" fill-opacity="0.5"/>
    <path d="M519 920H480V959H519V920Z" fill="#212121" fill-opacity="0.5"/>
    <path d="M679 920H640V959H679V920Z" fill="#212121" fill-opacity="0.5"/>
    <path d="M639 920H600V959H639V920Z" fill="#212121" fill-opacity="0.5"/>
    <path d="M599 920H560V959H599V920Z" fill="#212121" fill-opacity="0.5"/>
    <path d="M639 960H600V999H639V960Z" fill="#212121" fill-opacity="0.5"/>
    <path d="M599 960H560V999H599V960Z" fill="#212121" fill-opacity="0.5"/>
    <path d="M559 1000H520V1039H559V1000Z" fill="#212121" fill-opacity="0.5"/>
    <path d="M599 1040H560V1079H599V1040Z" fill="#212121" fill-opacity="0.5"/>
    <path d="M519 1000H480V1039H519V1000Z" fill="#212121" fill-opacity="0.5"/>
    <path d="M519 1040H480V1079H519V1040Z" fill="#212121" fill-opacity="0.5"/>
    <path d="M559 1040H520V1079H559V1040Z" fill="#212121" fill-opacity="0.5"/>
    <path d="M599 1080H560V1119H599V1080Z" fill="#212121" fill-opacity="0.5"/>
    <path d="M679 1120H640V1159H679V1120Z" fill="#212121" fill-opacity="0.5"/>
    <path d="M559 1080H520V1119H559V1080Z" fill="#212121" fill-opacity="0.5"/>
    <path d="M639 1160H600V1199H639V1160Z" fill="#212121" fill-opacity="0.5"/>
    <path d="M639 1200H600V1239H639V1200Z" fill="#212121" fill-opacity="0.5"/>
    <path d="M679 1160H640V1199H679V1160Z" fill="#212121" fill-opacity="0.5"/>
    <path d="M759 1200H720V1239H759V1200Z" fill="#212121" fill-opacity="0.5"/>
    <path d="M679 1240H640V1279H679V1240Z" fill="#212121" fill-opacity="0.5"/>
    <path d="M559 1160H520V1199H559V1160Z" fill="#212121" fill-opacity="0.5"/>
    <path d="M599 1160H560V1199H599V1160Z" fill="#212121" fill-opacity="0.5"/>
    <path d="M599 1120H560V1159H599V1120Z" fill="#212121" fill-opacity="0.5"/>
    <path d="M559 1200H520V1239H559V1200Z" fill="#212121" fill-opacity="0.5"/>
    <path d="M519 1120H480V1159H519V1120Z" fill="#212121" fill-opacity="0.5"/>
    <path d="M599 1200H560V1239H599V1200Z" fill="#212121" fill-opacity="0.5"/>
    <path d="M559 1240H520V1279H559V1240Z" fill="#212121" fill-opacity="0.5"/>
    <path d="M599 1280H560V1319H599V1280Z" fill="#212121" fill-opacity="0.5"/>
    <path d="M519 1280H480V1319H519V1280Z" fill="#212121" fill-opacity="0.5"/>
    <path d="M479 1200H440V1239H479V1200Z" fill="#212121" fill-opacity="0.5"/>
    <path d="M559 1120H520V1159H559V1120Z" fill="#212121" fill-opacity="0.5"/>
    <path d="M479 1000H440V1039H479V1000Z" fill="#212121" fill-opacity="0.5"/>
    <path d="M479 1040H440V1079H479V1040Z" fill="#212121" fill-opacity="0.5"/>
    <path d="M479 1240H440V1279H479V1240Z" fill="#212121" fill-opacity="0.5"/>
    <path d="M399 1200H360V1239H399V1200Z" fill="#212121" fill-opacity="0.5"/>
    <path d="M479 1160H440V1199H479V1160Z" fill="#212121" fill-opacity="0.5"/>
    <path d="M399 1280H360V1319H399V1280Z" fill="#212121" fill-opacity="0.5"/>
    <path d="M359 1200H320V1239H359V1200Z" fill="#212121" fill-opacity="0.5"/>
    <path d="M519 1200H480V1239H519V1200Z" fill="#212121" fill-opacity="0.5"/>
    <path d="M439 1160H400V1199H439V1160Z" fill="#212121" fill-opacity="0.5"/>
    <path d="M439 1120H400V1159H439V1120Z" fill="#212121" fill-opacity="0.5"/>
    <path d="M479 1280H440V1319H479V1280Z" fill="#212121" fill-opacity="0.5"/>
    <path d="M319 1200H280V1239H319V1200Z" fill="#212121" fill-opacity="0.5"/>
    <path d="M479 1120H440V1159H479V1120Z" fill="#212121" fill-opacity="0.5"/>
    <path d="M439 1240H400V1279H439V1240Z" fill="#212121" fill-opacity="0.5"/>
    <path d="M319 1160H280V1199H319V1160Z" fill="#212121" fill-opacity="0.5"/>
    <path d="M439 1280H400V1319H439V1280Z" fill="#212121" fill-opacity="0.5"/>
    <path d="M359 1240H320V1279H359V1240Z" fill="#212121" fill-opacity="0.5"/>
    <path d="M359 1160H320V1199H359V1160Z" fill="#212121" fill-opacity="0.5"/>
    <path d="M439 1200H400V1239H439V1200Z" fill="#212121" fill-opacity="0.5"/>
    <path d="M399 1160H360V1199H399V1160Z" fill="#212121" fill-opacity="0.5"/>
    <path d="M519 1160H480V1199H519V1160Z" fill="#212121" fill-opacity="0.5"/>
    <path d="M399 1240H360V1279H399V1240Z" fill="#212121" fill-opacity="0.5"/>
    <path d="M399 1120H360V1159H399V1120Z" fill="#212121" fill-opacity="0.5"/>
    <path d="M519 1240H480V1279H519V1240Z" fill="#212121" fill-opacity="0.5"/>
    <path d="M639 520H600V559H639V520Z" fill="#212121" fill-opacity="0.5"/>
    <path d="M679 640H640V679H679V640Z" fill="#212121" fill-opacity="0.5"/>
    <path d="M559 680H520V719H559V680Z" fill="#212121" fill-opacity="0.5"/>
    <path d="M479 840H440V879H479V840Z" fill="#212121" fill-opacity="0.5"/>
    <path d="M599 840H560V879H599V840Z" fill="#212121" fill-opacity="0.5"/>
    <path d="M399 960H360V999H399V960Z" fill="#212121" fill-opacity="0.5"/>
    <path d="M319 1120H280V1159H319V1120Z" fill="#212121" fill-opacity="0.5"/>
    <path d="M159 1040H120V1079H159V1040Z" fill="#212121" fill-opacity="0.5"/>
    <path d="M39 1120H0V1159H39V1120Z" fill="#212121" fill-opacity="0.5"/>
    <path d="M159 880H120V919H159V880Z" fill="#212121" fill-opacity="0.5"/>
    <path d="M359 800H320V839H359V800Z" fill="#212121" fill-opacity="0.5"/>
    <path d="M359 680H320V719H359V680Z" fill="#212121" fill-opacity="0.5"/>
    <path d="M439 640H400V679H439V640Z" fill="#212121" fill-opacity="0.5"/>
    <path d="M399 680H360V719H399V680Z" fill="#212121" fill-opacity="0.5"/>
    <path d="M439 600H400V639H439V600Z" fill="#212121" fill-opacity="0.5"/>
    <path d="M399 600H360V639H399V600Z" fill="#212121" fill-opacity="0.5"/>
</svg>
